<?xml version="1.0" encoding="UTF-8" standalone="no"?>
<!-- Created with Inkscape (http://www.inkscape.org/) -->

<svg
   xmlns:dc="http://purl.org/dc/elements/1.1/"
   xmlns:cc="http://creativecommons.org/ns#"
   xmlns:rdf="http://www.w3.org/1999/02/22-rdf-syntax-ns#"
   xmlns:svg="http://www.w3.org/2000/svg"
   xmlns="http://www.w3.org/2000/svg"
   xmlns:xlink="http://www.w3.org/1999/xlink"
   xmlns:sodipodi="http://sodipodi.sourceforge.net/DTD/sodipodi-0.dtd"
   xmlns:inkscape="http://www.inkscape.org/namespaces/inkscape"
   width="210mm"
   height="297mm"
   viewBox="0 0 210 297"
   version="1.1"
   id="svg8"
   inkscape:version="0.92.4 5da689c313, 2019-01-14"
   sodipodi:docname="beaker.svg"
   enable-background="new">
  <defs
     id="defs2">
    <linearGradient
       inkscape:collect="always"
       id="linearGradient829">
      <stop
         style="stop-color:#ffffff;stop-opacity:0.5272727"
         offset="0"
         id="stop825" />
      <stop
         id="stop845"
         offset="0.88916826"
         style="stop-color:#e5faff;stop-opacity:0.00392157" />
      <stop
         style="stop-color:#ffffff;stop-opacity:0.30500001"
         offset="1"
         id="stop827" />
    </linearGradient>
    <linearGradient
       inkscape:collect="always"
       xlink:href="#linearGradient829"
       id="linearGradient831"
       x1="-156.63841"
       y1="787.89886"
       x2="602.94818"
       y2="740.63202"
       gradientUnits="userSpaceOnUse" />
    <filter
       inkscape:collect="always"
       style="color-interpolation-filters:sRGB"
       id="filter841">
      <feBlend
         inkscape:collect="always"
         mode="screen"
         in2="BackgroundImage"
         id="feBlend843" />
    </filter>
    <filter
       inkscape:collect="always"
       style="color-interpolation-filters:sRGB"
       id="filter1047"
       x="-0.013822381"
       width="1.0276448"
       y="-0.01060218"
       height="1.0212044">
      <feGaussianBlur
         inkscape:collect="always"
         stdDeviation="0.71141708"
         id="feGaussianBlur1049" />
    </filter>
    <filter
       inkscape:collect="always"
       style="color-interpolation-filters:sRGB"
       id="filter1075"
       x="-0.046188609"
       width="1.0923772"
       y="-0.028803883"
       height="1.0576078">
      <feGaussianBlur
         inkscape:collect="always"
         stdDeviation="2.0943136"
         id="feGaussianBlur1077" />
    </filter>
  </defs>
  <sodipodi:namedview
     id="base"
     pagecolor="#ffffff"
     bordercolor="#666666"
     borderopacity="1.0"
     inkscape:pageopacity="0"
     inkscape:pageshadow="2"
     inkscape:zoom="0.85271357"
     inkscape:cx="763.60129"
     inkscape:cy="493.91444"
     inkscape:document-units="mm"
     inkscape:current-layer="layer2"
     showgrid="false"
     inkscape:pagecheckerboard="true"
     inkscape:window-width="1920"
     inkscape:window-height="1044"
     inkscape:window-x="0"
     inkscape:window-y="36"
     inkscape:window-maximized="1" />
  <metadata
     id="metadata5">
    <rdf:RDF>
      <cc:Work
         rdf:about="">
        <dc:format>image/svg+xml</dc:format>
        <dc:type
           rdf:resource="http://purl.org/dc/dcmitype/StillImage" />
        <dc:title />
      </cc:Work>
    </rdf:RDF>
  </metadata>
  <g
     inkscape:label="Layer 1"
     inkscape:groupmode="layer"
     id="layer1"
     style="display:inline">
    <g
       id="g4548"
       transform="translate(17.309489,-48.153525)">
      <path
         style="fill:#85e8ff;fill-opacity:0.51834866;stroke:none;stroke-width:15.11811066;stroke-miterlimit:4;stroke-dasharray:none;stroke-opacity:1;paint-order:stroke fill markers"
         d="m 70,399.63281 c -18.202872,0 -32.857422,14.65455 -32.857422,32.85742 0,15.74747 10.970397,28.83081 25.714844,32.07618 v 579.98829 c 0,23.4499 18.878165,42.3281 42.328128,42.3281 h 452.48633 c 23.44996,0 42.32812,-18.8782 42.32812,-42.3281 V 464.56641 c 14.74445,-3.24537 25.71484,-16.32871 25.71484,-32.07618 0,-18.20287 -14.65455,-32.85742 -32.85742,-32.85742 z"
         id="path4525"
         transform="scale(0.26458333)"
         inkscape:connector-curvature="0" />
      <path
         sodipodi:nodetypes="cscsssscsc"
         inkscape:connector-curvature="0"
         transform="scale(0.26458333)"
         id="rect10"
         d="m 70,399.63281 c -18.202872,0 -32.857422,14.65455 -32.857422,32.85742 0,15.74747 10.970397,28.83081 25.714844,32.07618 v 579.98829 c 0,23.4499 18.878165,42.3281 42.328128,42.3281 h 452.48633 c 23.44996,0 42.32812,-18.8782 42.32812,-42.3281 V 464.56641 c 14.74445,-3.24537 25.71484,-16.32871 25.71484,-32.07618 0,-18.20287 -14.65455,-32.85742 -32.85742,-32.85742"
         style="fill:none;fill-opacity:0.51834866;stroke:#ffffff;stroke-width:15.11811066;stroke-linecap:round;stroke-miterlimit:4;stroke-dasharray:none;stroke-opacity:1;paint-order:stroke fill markers" />
    </g>
  </g>
  <g
     inkscape:groupmode="layer"
     id="layer2"
     inkscape:label="Layer 2"
     style="display:inline;filter:url(#filter841)">
    <path
       inkscape:connector-curvature="0"
       id="path823"
       d="m 70,399.63281 c -18.202872,0 -32.857422,14.65455 -32.857422,32.85742 0,15.74747 10.970397,28.83081 25.714844,32.07618 v 579.98829 c 0,23.4499 18.878165,42.3281 42.328128,42.3281 h 452.48633 c 23.44996,0 42.32812,-18.8782 42.32812,-42.3281 V 464.56641 c 14.74445,-3.24537 25.71484,-16.32871 25.71484,-32.07618 0,-18.20287 -14.65455,-32.85742 -32.85742,-32.85742 z"
       style="fill:url(#linearGradient831);fill-opacity:1;stroke:none;stroke-width:15.11811066;stroke-miterlimit:4;stroke-dasharray:none;stroke-opacity:1;paint-order:stroke fill markers"
       transform="matrix(0.26458333,0,0,0.26458333,17.309489,-48.153524)"
       mask="none" />
    <path
       sodipodi:nodetypes="cccccc"
       inkscape:connector-curvature="0"
       id="path1053"
       d="m 38.395679,74.626814 c 0.658212,1.09702 1.755232,160.062486 1.755232,160.062486 35.979203,-0.68642 71.795259,6.28329 106.630279,-0.85786 l -3.07165,-98.75151 5.24596,-55.289776 c -39.93353,2.217913 -74.071588,0.717098 -110.559821,-5.16334 z"
       style="opacity:0.16000001;fill:#e5faff;fill-opacity:1;stroke:none;stroke-width:0.26458332px;stroke-linecap:butt;stroke-linejoin:miter;stroke-opacity:1;filter:url(#filter1075)"
       transform="matrix(0.50510746,0,0,0.71629449,19.382539,52.163513)" />
  </g>
</svg>
