<?xml version="1.0" encoding="UTF-8" standalone="no"?>
<!-- Created with Inkscape (http://www.inkscape.org/) -->

<svg
   xmlns:dc="http://purl.org/dc/elements/1.1/"
   xmlns:cc="http://creativecommons.org/ns#"
   xmlns:rdf="http://www.w3.org/1999/02/22-rdf-syntax-ns#"
   xmlns:svg="http://www.w3.org/2000/svg"
   xmlns="http://www.w3.org/2000/svg"
   xmlns:xlink="http://www.w3.org/1999/xlink"
   xmlns:sodipodi="http://sodipodi.sourceforge.net/DTD/sodipodi-0.dtd"
   xmlns:inkscape="http://www.inkscape.org/namespaces/inkscape"
   width="93.863998mm"
   height="175.70819mm"
   viewBox="0 0 93.863998 175.70819"
   version="1.1"
   id="svg8"
   inkscape:version="0.92.4 5da689c313, 2019-01-14"
   sodipodi:docname="burner.svg">
  <defs
     id="defs2">
    <linearGradient
       inkscape:collect="always"
       id="linearGradient826">
      <stop
         id="stop824"
         offset="0"
         style="stop-color:#ffffff;stop-opacity:1" />
      <stop
         id="stop822"
         offset="1"
         style="stop-color:#10cbff;stop-opacity:0.56363636" />
    </linearGradient>
    <radialGradient
       inkscape:collect="always"
       xlink:href="#linearGradient826"
       id="radialGradient830"
       cx="136.14838"
       cy="112.81457"
       fx="136.14838"
       fy="112.81457"
       r="28.559961"
       gradientTransform="matrix(2.0997038,0.09111615,-0.09592169,3.7312323,-171.44237,-309.41025)"
       gradientUnits="userSpaceOnUse"
       spreadMethod="pad" />
    <radialGradient
       inkscape:collect="always"
       xlink:href="#linearGradient826"
       id="radialGradient916"
       gradientUnits="userSpaceOnUse"
       gradientTransform="matrix(2.0996958,0.09111615,-0.09592133,3.7312323,-112.1793,-306.38644)"
       cx="136.14838"
       cy="112.81457"
       fx="136.14838"
       fy="112.81457"
       r="28.559961"
       spreadMethod="pad" />
  </defs>
  <sodipodi:namedview
     id="base"
     pagecolor="#ffffff"
     bordercolor="#666666"
     borderopacity="1.0"
     inkscape:pageopacity="0.0"
     inkscape:pageshadow="2"
     inkscape:zoom="0.7"
     inkscape:cx="95.430978"
     inkscape:cy="352.75856"
     inkscape:document-units="mm"
     inkscape:current-layer="layer1"
     showgrid="false"
     inkscape:window-width="1920"
     inkscape:window-height="1044"
     inkscape:window-x="0"
     inkscape:window-y="36"
     inkscape:window-maximized="1"
     fit-margin-top="0"
     fit-margin-left="0"
     fit-margin-right="0"
     fit-margin-bottom="0" />
  <metadata
     id="metadata5">
    <rdf:RDF>
      <cc:Work
         rdf:about="">
        <dc:format>image/svg+xml</dc:format>
        <dc:type
           rdf:resource="http://purl.org/dc/dcmitype/StillImage" />
        <dc:title></dc:title>
      </cc:Work>
    </rdf:RDF>
  </metadata>
  <g
     inkscape:label="Layer 1"
     inkscape:groupmode="layer"
     id="layer1"
     transform="translate(-93.864,-63.669712)">
    <path
       sodipodi:nodetypes="sssscsssscsssss"
       inkscape:connector-curvature="0"
       id="path904"
       d="m 100.11437,125.32222 c -2.354704,0 -4.250374,1.89568 -4.250374,4.25038 v 5.13044 c 0,2.35471 1.89567,4.24987 4.250374,4.24987 h 2.09702 v 94.17461 c 0,2.35471 1.89566,4.25039 4.25036,4.25039 h 21.73702 c 2.3547,0 4.25037,-1.89568 4.25037,-4.25039 v -94.17461 h 2.0965 c 2.3547,0 4.25036,-1.89516 4.25036,-4.24987 v -5.13044 c 0,-2.3547 -1.89566,-4.25038 -4.25036,-4.25038 z"
       style="opacity:1;fill:#4d4d4d;fill-opacity:1;stroke:#b7b7b7;stroke-width:3.99999213;stroke-linecap:round;stroke-miterlimit:4;stroke-dasharray:none;stroke-opacity:1;paint-order:stroke fill markers" />
    <path
       style="fill:url(#radialGradient916);fill-opacity:1;stroke:none;stroke-width:0.17457975px;stroke-linecap:butt;stroke-linejoin:miter;stroke-opacity:1"
       d="m 151.03746,127.72765 c -8.81885,-28.54386 2.7849,-48.444151 2.7849,-48.444151 0,0 0.3122,6.399201 1.7019,14.975471 0.61887,3.81925 1.88998,-14.793931 2.7849,-20.704351 0.92829,-6.1309 0.91863,-13.86834 2.32075,3.91975 1.31508,16.684091 0.92829,19.799801 2.16603,11.156231 1.23772,-8.643561 6.15152,-30.575511 7.81319,-23.619041 4.87358,20.40284 3.63584,25.327651 2.86227,28.945891 -0.77359,3.61823 5.56979,-8.543061 5.26035,-15.478011 -0.34839,-7.80834 2.47548,15.075991 2.01133,23.317531 -0.46415,8.24153 -5.72452,25.93068 -5.72452,25.93068"
       id="path910"
       inkscape:connector-curvature="0"
       sodipodi:nodetypes="ccssssscssc" />
    <path
       style="opacity:1;fill:#4d4d4d;fill-opacity:1;stroke:#b7b7b7;stroke-width:3.99999213;stroke-linecap:round;stroke-miterlimit:4;stroke-dasharray:none;stroke-opacity:1;paint-order:stroke fill markers"
       d="m 147.04637,125.32222 c -2.3547,0 -4.25037,1.89568 -4.25037,4.25038 v 5.13044 c 0,2.35471 1.89567,4.24987 4.25037,4.24987 h 2.09702 v 94.17461 c 0,2.35471 1.89566,4.25039 4.25037,4.25039 h 21.73701 c 2.3547,0 4.25037,-1.89568 4.25037,-4.25039 v -94.17461 h 2.0965 c 2.3547,0 4.25036,-1.89516 4.25036,-4.24987 v -5.13044 c 0,-2.3547 -1.89566,-4.25038 -4.25036,-4.25038 z"
       id="path912"
       inkscape:connector-curvature="0"
       sodipodi:nodetypes="sssscsssscsssss" />
  </g>
</svg>
